<?xml version="1.0" encoding="UTF-8"?>
<svg id="Camada_1" xmlns="http://www.w3.org/2000/svg" xmlns:xlink="http://www.w3.org/1999/xlink" viewBox="0 0 1080 1080">
  <defs>
    <style>
      .cls-1 {
        fill: none;
      }

      .cls-2, .cls-3 {
        fill: #4fbbbe;
      }

      .cls-3 {
        fill-rule: evenodd;
      }

      .cls-4 {
        fill: #14387f;
      }

      .cls-5 {
        clip-path: url(#clippath);
      }
    </style>
    <clipPath id="clippath">
      <rect class="cls-1" x="8.52" y="164.21" width="1062.95" height="751.58"/>
    </clipPath>
  </defs>
  <g class="cls-5">
    <path class="cls-3" d="M524.92,417.13c103.71-18.28,191.74-11.37,196.46,15.4,4.73,26.77-75.62,63.41-179.34,81.69-103.79,18.32-191.85,11.36-196.58-15.42-4.72-26.75,75.66-63.36,179.45-81.66M526.55,424.42c-78.29,13.81-139.63,37.97-136.83,53.9,2.82,15.98,68.73,17.72,147.02,3.9,78.31-13.8,139.61-37.95,136.79-53.96-2.8-15.92-68.66-17.65-146.98-3.84"/>
    <path class="cls-2" d="M446.93,565.09c0,2.11-.16,4.48-.49,7.1-.33,2.63-.8,5.39-1.36,8.27-.59,2.88-1.24,5.74-1.99,8.6-.78,2.86-1.57,5.58-2.42,8.14-.87,2.58-1.71,4.85-2.6,6.85-1.27,2.88-2.67,5.44-4.22,7.64-1.55,2.2-3.28,3.94-5.2,5.21-1.92,1.27-4.08,1.9-6.47,1.92-2.51-.02-4.53-.64-6-1.83-1.48-1.2-2.56-2.84-3.19-4.93-.63-2.09-.96-4.48-.94-7.17,0-2.18.19-4.64.54-7.34.35-2.7.82-5.51,1.43-8.44.61-2.93,1.31-5.84,2.11-8.7.77-2.88,1.62-5.58,2.51-8.11.89-2.53,1.78-4.76,2.69-6.66,1.31-2.79,2.74-5.28,4.32-7.46,1.57-2.16,3.31-3.87,5.2-5.13,1.92-1.24,4.03-1.88,6.38-1.9,2.42.02,4.34.63,5.77,1.83,1.43,1.2,2.44,2.84,3.05,4.92.61,2.09.91,4.48.89,7.17M469.02,569.45c0-4.81-.56-9.24-1.69-13.29-1.15-4.03-2.91-7.55-5.32-10.55-2.42-3-5.51-5.32-9.31-6.99-3.8-1.64-8.35-2.48-13.64-2.51-4.92.02-9.45.75-13.62,2.18-4.15,1.43-7.92,3.47-11.35,6.09-3.42,2.63-6.49,5.72-9.22,9.31-2.32,3.12-4.43,6.61-6.28,10.5-1.87,3.87-3.47,7.95-4.78,12.21-1.34,4.27-2.35,8.56-3.05,12.85-.7,4.29-1.08,8.44-1.08,12.4,0,5.04.61,9.66,1.83,13.81,1.24,4.15,3.1,7.74,5.6,10.76,2.49,3,5.63,5.34,9.43,6.99,3.8,1.64,8.25,2.46,13.39,2.49,5.06-.02,9.7-.73,13.9-2.16,4.2-1.41,8-3.42,11.39-6,3.4-2.6,6.4-5.7,9.03-9.28,2.3-3.16,4.34-6.73,6.17-10.71,1.83-3.99,3.37-8.16,4.64-12.54,1.29-4.36,2.27-8.75,2.93-13.11.68-4.36,1.03-8.51,1.03-12.45M399.02,537.52l-3.09,15.33h-16.74l-16.74,81.45h-22.93l16.88-81.45h-16.6l3.09-15.33h56.12ZM334.66,537.52h-19.13l-10.13,49.23c-.38,1.71-.68,3.31-.89,4.76-.23,1.48-.4,2.65-.52,3.56-.09.89-.14,1.36-.14,1.38h-.28s-.14-.47-.4-1.36c-.26-.87-.63-2.02-1.12-3.42-.47-1.43-1.05-2.98-1.71-4.64l-19.55-49.51h-19.41l-19.97,96.78h19.13l11.11-53.88c.37-1.81.68-3.52.94-5.11.26-1.59.45-2.88.56-3.89.12-1.01.19-1.52.19-1.55h.28s.14.54.4,1.5c.26.96.63,2.23,1.13,3.75.47,1.52,1.05,3.16,1.71,4.87l21.1,54.3h16.74l19.98-96.78ZM236.96,634.3l-11.26-96.78h-22.36l-51.49,96.78h21.38l32.21-65.41c1.03-2.18,1.87-4.15,2.53-5.91.68-1.76,1.17-3.14,1.5-4.17.3-1.05.47-1.57.47-1.59h.28s-.02.54-.05,1.59c-.05,1.03-.05,2.42-.05,4.17.02,1.76.09,3.73.23,5.91,1.47,22.04,2.29,43.44,4.08,65.41h22.51ZM165.43,541.74l-7.6,13.64c-1.4-.96-3.26-1.8-5.51-2.51-2.27-.73-4.88-1.13-7.85-1.15-2.37.02-4.43.42-6.24,1.22-1.81.82-3.31,1.9-4.55,3.26-1.22,1.36-2.14,2.91-2.77,4.59-.64,1.71-.94,3.47-.94,5.28.02,1.9.52,3.56,1.43,4.99.94,1.45,2.18,2.77,3.73,3.96,1.55,1.19,3.23,2.39,5.09,3.54,1.85,1.15,3.68,2.39,5.53,3.73,1.85,1.31,3.54,2.81,5.09,4.5,1.55,1.69,2.79,3.66,3.73,5.93.92,2.25,1.41,4.9,1.43,7.95.02,2.86-.42,5.86-1.27,9.05-.87,3.17-2.2,6.28-4.08,9.35-1.85,3.07-4.29,5.84-7.29,8.35-3,2.48-6.66,4.5-10.93,5.98-4.29,1.5-9.28,2.25-14.98,2.3-5.7-.02-10.64-.52-14.79-1.5-4.17-.99-7.48-2.35-9.96-4.13l8.3-15.05c.86.63,1.97,1.22,3.35,1.8,1.41.56,2.98,1.03,4.78,1.41,1.78.37,3.73.56,5.79.59,3.16-.02,5.98-.66,8.42-1.92,2.44-1.27,4.36-3.03,5.77-5.25,1.41-2.23,2.11-4.81,2.14-7.74-.02-2.16-.64-4.03-1.78-5.61-1.15-1.59-2.62-3.05-4.45-4.38-1.81-1.34-3.75-2.7-5.79-4.11-2.04-1.38-3.96-2.98-5.79-4.76-1.81-1.78-3.31-3.91-4.45-6.38-1.15-2.49-1.73-5.46-1.78-8.96,0-2.86.44-5.82,1.34-8.91.89-3.07,2.25-6.07,4.1-9,1.85-2.93,4.22-5.56,7.08-7.92,2.86-2.37,6.28-4.24,10.22-5.65,3.94-1.38,8.46-2.11,13.55-2.13,4.99.02,9.28.56,12.92,1.6,3.63,1.03,6.63,2.39,9.02,4.03"/>
    <path class="cls-4" d="M760.8,522.5h15.44l-7.67,11.19h-15.44l7.67-11.19ZM550.06,559.75c0,3.75-.66,7.36-1.92,10.81-1.29,3.47-3.12,6.61-5.53,9.45-1.95,2.21-4.08,4.13-6.45,5.77-2.37,1.64-4.83,2.98-7.41,3.99-2.56.98-5.11,1.64-7.67,1.92v.28l17.16,42.2h-24.34l-14.63-43.19h-.28l-9,43.19h-22.37l19.13-92.56c4.1-1.78,8.65-3.14,13.67-4.13,5.01-.98,10.46-1.48,16.29-1.5,7.45.02,13.64,1.03,18.59,3,4.92,1.97,8.63,4.74,11.07,8.3,2.46,3.54,3.68,7.71,3.68,12.47M527.7,560.17c.02-3.73-1.03-6.51-3.14-8.34-2.11-1.85-5.37-2.77-9.8-2.77-1.45,0-2.79.09-3.96.31-1.2.19-2.3.47-3.35.82l-7.17,35.03c.52.14,1.22.28,2.11.37.89.12,1.87.19,2.95.19,3.47-.02,6.61-.66,9.4-1.95,2.81-1.27,5.23-3.12,7.2-5.51,1.27-1.62,2.32-3.45,3.19-5.49.85-2.04,1.5-4.15,1.92-6.33.44-2.18.66-4.29.66-6.33M614.98,537.38h-49.51l-19.97,96.78h49.51l3.24-15.33h-26.73l5.49-26.59h23.35l3.09-14.91h-23.35l5.06-24.62h26.73l3.09-15.33ZM712.82,537.38l-9.71,96.78h-20.96l6.89-56.41c.23-2.06.52-4.01.8-5.84.28-1.83.51-3.31.7-4.48.21-1.15.33-1.76.33-1.78h-.28s-.21.61-.64,1.76c-.4,1.15-.98,2.62-1.73,4.45-.77,1.83-1.67,3.78-2.7,5.89l-28.27,56.41h-11.39l-4.92-56.41c-.19-2.11-.3-4.06-.4-5.89-.07-1.83-.12-3.3-.14-4.45-.02-1.15-.02-1.74-.02-1.76h-.28s-.07.61-.26,1.76c-.16,1.15-.42,2.62-.8,4.45-.38,1.83-.87,3.78-1.48,5.89l-16.6,56.41h-19.41l30.24-96.78h22.37l3.94,55.42c.14,1.9.21,3.63.23,5.2,0,1.57,0,2.81-.05,3.75-.02.94-.05,1.43-.05,1.45h.28s.16-.52.52-1.45c.33-.94.82-2.18,1.45-3.75.66-1.57,1.45-3.31,2.39-5.2l27.71-55.42h22.23ZM782.11,537.38h-49.51l-19.98,96.78h49.51l3.23-15.33h-26.73l5.49-26.59h23.35l3.09-14.91h-23.35l5.06-24.62h26.73l3.1-15.33ZM855.47,570.44c0,3.91-.37,8.04-1.12,12.42-.73,4.38-1.81,8.77-3.19,13.15-1.41,4.38-3.09,8.56-5.06,12.49-1.97,3.94-4.2,7.43-6.66,10.46-2.65,3.26-5.82,6.14-9.45,8.63-3.66,2.46-7.88,4.41-12.68,5.81-4.81,1.41-10.27,2.13-16.41,2.16-3.92,0-7.6-.23-11.09-.7-3.49-.47-6.68-1.12-9.54-1.97-2.89-.84-5.32-1.83-7.36-2.95l18.29-88.34c2.67-1.17,5.46-2.18,8.42-3.03,2.95-.84,6.12-1.48,9.52-1.92,3.4-.45,7.08-.68,11.04-.68,6.28.02,11.67.89,16.15,2.58,4.46,1.69,8.11,4.08,10.95,7.15,2.81,3.09,4.9,6.73,6.24,10.92,1.34,4.17,1.99,8.79,1.97,13.81M833.25,566.92c.02-5.49-1.15-9.54-3.49-12.22-2.34-2.65-6.02-3.98-11-3.96-1.27,0-2.51.1-3.73.3-1.2.19-2.3.47-3.31.82l-13.78,66.96c.73.28,1.62.52,2.7.7,1.08.19,2.3.28,3.63.28,3.91.02,7.38-.92,10.38-2.84,3.03-1.92,5.74-5,8.18-9.26,1.1-1.97,2.18-4.27,3.19-6.89,1.03-2.63,1.97-5.44,2.86-8.42.87-3,1.62-6,2.27-9.05.66-3.07,1.17-6,1.52-8.82.37-2.81.56-5.34.56-7.62M896.9,537.38h-22.93l-19.97,96.78h22.93l19.97-96.78ZM974.77,569.31c0,3.94-.35,8.09-1.03,12.45-.66,4.36-1.64,8.75-2.93,13.11-1.26,4.38-2.81,8.56-4.64,12.54-1.83,3.99-3.87,7.55-6.17,10.71-2.63,3.59-5.63,6.68-9.03,9.28-3.4,2.58-7.2,4.59-11.4,6-4.19,1.43-8.84,2.13-13.9,2.16-5.13-.02-9.59-.84-13.39-2.48-3.8-1.64-6.94-3.99-9.42-6.99-2.51-3.02-4.36-6.61-5.6-10.76-1.22-4.15-1.83-8.77-1.83-13.81,0-3.96.38-8.11,1.08-12.4.7-4.29,1.71-8.58,3.05-12.85,1.31-4.27,2.91-8.35,4.78-12.21,1.85-3.89,3.96-7.38,6.29-10.5,2.72-3.59,5.79-6.68,9.21-9.31,3.42-2.63,7.2-4.67,11.34-6.09,4.17-1.43,8.7-2.16,13.62-2.18,5.3.02,9.85.87,13.64,2.51,3.8,1.66,6.89,3.99,9.31,6.99,2.41,3,4.17,6.52,5.32,10.55,1.13,4.06,1.69,8.49,1.69,13.29M951.79,557.78c-.61-2.09-1.62-3.73-3.05-4.92-1.43-1.2-3.35-1.81-5.77-1.83-2.34.02-4.45.65-6.38,1.9-1.9,1.27-3.63,2.98-5.2,5.13-1.57,2.18-3,4.67-4.31,7.45-.91,1.9-1.81,4.13-2.7,6.66-.89,2.53-1.73,5.23-2.51,8.11-.8,2.86-1.5,5.76-2.11,8.7-.61,2.93-1.08,5.74-1.43,8.44-.35,2.7-.54,5.16-.54,7.34-.02,2.7.31,5.09.94,7.18.63,2.09,1.71,3.73,3.19,4.92,1.48,1.19,3.49,1.81,6,1.83,2.39-.02,4.55-.66,6.47-1.92,1.92-1.27,3.66-3,5.21-5.21,1.55-2.2,2.95-4.76,4.22-7.64.89-1.99,1.74-4.27,2.6-6.85.84-2.56,1.64-5.27,2.42-8.13.75-2.86,1.41-5.72,1.99-8.6.56-2.88,1.03-5.65,1.36-8.28.33-2.63.49-4.99.49-7.1.02-2.7-.28-5.09-.89-7.17"/>
  </g>
</svg>