<?xml version="1.0" encoding="UTF-8"?>
<svg id="Camada_1" xmlns="http://www.w3.org/2000/svg" viewBox="0 0 1080 1080">
  <defs>
    <style>
      .cls-1 {
        fill: #f3ce30;
      }

      .cls-2 {
        fill: #b92628;
      }

      .cls-3 {
        fill: #b81d24;
      }

      .cls-4 {
        fill: #fff;
      }

      .cls-5 {
        fill: #b82226;
      }
    </style>
  </defs>
  <path class="cls-1" d="M680.93,690.39c-7.24,5.36-14.73,9-23.58,9.91-19.57,2-33.21-7.31-38.19-26.18-6.23-23.59,3.75-74.75,26.08-95.06,10.96-9.97,23.35-15.32,38.42-13.05,4.56.69,8.69,2.36,12.08,5.46,2.52,2.3,3.28,1.76,3.85-1.45,3.34-18.94,6.92-37.83,10.21-56.78.55-3.16,1.87-4.42,4.98-4.78,4.34-.5,8.65-.92,12.97-.15,10.19,1.81,15.6,9.23,13.9,19.87-2.32,14.56-5.02,29.06-7.64,43.58-7.12,39.41-14.29,78.82-21.44,118.22-.26,1.42-.64,2.83-.8,4.26-.26,2.28-1.41,3.27-3.73,3.25-6.23-.07-12.46-.03-18.69-.06-4.45-.02-6.7-2.88-8.42-7.05ZM653.37,650.28c.15,2.21.18,4.39.48,6.53.24,1.71.67,3.41,1.24,5.04,2.19,6.18,6.98,8.95,14.46,8.49,7.53-.47,12.41-4.05,13.6-10.4,3.38-18.03,6.62-36.09,9.95-54.14.22-1.21.32-2.25-.67-3.18-2.34-2.2-4.74-4.15-8.17-4.52-10.02-1.1-16.58,3.81-21.11,12.09-6.83,12.49-8.63,26.23-9.78,40.09Z"/>
  <path class="cls-3" d="M493.67,458.83c-1.63,9.87-3.15,18.99-4.62,28.11-.19,1.2-.83,1.68-1.91,2-18.81,5.62-37.88,9.28-57.25,3.58-23.36-6.88-35.92-23.46-37.66-47.26-1.83-24.96,5.55-47.39,25.45-63.54,19.87-16.13,42.86-18.21,66.32-8.93,16.2,6.41,23.41,20.23,25.95,36.86,1.58,10.34.16,20.47-1.38,30.66-.47,3.08-1.79,3.54-4.51,3.53-23.62-.1-47.25.04-70.87-.14-3.94-.03-5.03.87-4.27,4.84,1.49,7.76,5.41,13.35,12.99,15.96,12.88,4.42,25.69,2.71,38.46-.68,4.33-1.15,8.45-2.88,13.29-4.99ZM431.25,419.98c13.49,0,26.95.05,40.41-.02,7.94-.04,7.15,1.46,6.07-7.3-1.3-10.48-7.87-16.47-17.73-16.8-13.92-.47-26.41,9.92-28.74,24.12Z"/>
  <path class="cls-1" d="M937.9,613.97c-.63,19.94-4.77,39.03-14.88,56.43-13.77,23.69-37.17,34.93-62.87,30.58-16.32-2.76-28.49-13.68-31.44-31.17-5.56-32.96,1.86-62.92,25.58-87.27,14.72-15.11,33.47-19.62,53.99-14.9,15.93,3.67,26.32,16.24,28.69,33.33.6,4.31,1.1,8.62.93,13ZM861.67,650.6c.52,3.59.42,6.35,1.2,9.04,2.13,7.37,5.97,10.28,13.59,10.04,7.68-.24,12.4-4.95,16.21-10.9,3.96-6.19,6.04-13.15,7.51-20.25,1.99-9.63,4.2-19.31,2-29.22-1.83-8.25-7.42-11.82-15.69-10.4-6.05,1.04-10.21,4.73-13.43,9.52-8.76,13-10.75,27.84-11.38,42.17Z"/>
  <path class="cls-1" d="M375.52,595.39c-9.52-.43-18.11,4.89-26.87,9.66-5.29,2.88-6.01,2.66-8.08-2.87-1.53-4.11-2.27-8.39-2.48-12.73-.25-5.17,2.13-9.19,6.15-12.3,9.49-7.32,20.61-10.3,32.2-11.81,7.48-.97,15.02-1.01,22.49.46,17.15,3.38,25.41,13.24,25.65,30.82.16,11.66-2.68,22.94-4.56,34.35-2.61,15.83-6.42,31.45-7.87,47.48-.4,4.39-.25,8.73.91,12.91.91,3.3-.21,4.86-3.16,5.9-5.1,1.79-10.28,3.07-15.72,2.64-5.75-.45-10.95-2.19-13.38-8.01-1.17-2.81-2.13-2.57-4.27-1.02-8.97,6.5-19.04,9.45-30.15,9.17-16.88-.43-28.22-11.62-28.66-28.53-.78-30.09,18.31-52.05,49.24-56.69,6.59-.99,13.17-2.04,19.85-1.92,2.03.03,2.97-.49,3.49-2.71,2.49-10.73-1.33-14.94-14.76-14.79ZM362.12,671.17c5.85-.4,11.72-2.51,16.57-7.09,1.5-1.41,2.82-2.98,3.21-5.05,1.23-6.53,2.38-13.08,3.59-19.62.36-1.93.08-3.13-2.33-2.71-4.84.85-9.79,1.1-14.51,2.55-10.66,3.27-17.05,11.57-16.99,22.01.04,6.88,2.95,9.83,10.48,9.92Z"/>
  <path class="cls-1" d="M580.64,565.17c5.11-.06,10.13.46,15.09,1.65,14.33,3.43,22.22,13.04,22.94,27.72.56,11.4-1.9,22.44-3.83,33.55-2.63,15.09-5.52,30.14-7.94,45.27-.98,6.12-1.25,12.41.37,18.55.83,3.13-.27,4.76-3.31,5.88-5.84,2.17-11.77,2.95-17.91,2.25-5.11-.58-9.21-2.96-11.1-7.85-1.19-3.08-2.26-2.24-4.18-.87-9.91,7.12-20.96,10.35-33.14,8.86-16.04-1.96-25.32-12.33-25.85-28.54-.92-28.52,17.96-50.93,47.13-55.94,7.42-1.27,14.88-2.22,22.4-2.55.95-.04,1.93.21,2.7-.87,3.45-4.84.19-14.29-5.58-15.7-7.74-1.9-15.29-.83-22.47,2.34-5.02,2.21-9.88,4.83-14.64,7.55-2.87,1.64-4.48,1.09-5.73-1.84-2.37-5.56-3.55-11.31-3.07-17.34.36-4.56,3.15-7.7,6.67-10.2,12.41-8.83,26.62-11.48,41.44-11.91ZM556.28,671.44c11.65-.22,18.8-6.33,20.78-17.75.32-1.85.67-3.7,1.03-5.54q2.27-11.6-9.54-9.76c-13.26,2.07-21.42,9.74-22.73,21.39-.91,8.03,2.49,11.81,10.46,11.66Z"/>
  <path class="cls-1" d="M248.96,598.05c-.49,14.52-4.09,28.58-6.39,42.84-2,12.41-5.19,24.63-5.88,37.24-.24,4.48-.37,8.97.92,13.36.74,2.52-.23,4.05-2.68,5.06-6.18,2.56-12.58,3.38-19.15,2.48-4.88-.67-8.87-3.08-10.63-7.86-1.04-2.82-1.94-2.32-3.86-.95-9.9,7.08-20.89,10.36-33.11,9.07-15.82-1.67-25.66-12.35-26.08-28.3-.76-29.05,17.85-51.36,46.79-56.18,7.57-1.26,15.16-2.29,22.84-2.58.93-.04,1.89.24,2.62-.95,3.58-5.87.14-14.35-6.58-15.81-7.79-1.7-15.29-.39-22.42,2.87-4.73,2.16-9.35,4.61-13.84,7.23-2.93,1.71-4.54.94-5.71-1.92-2.17-5.29-3.31-10.77-3.07-16.51.22-5.33,3.42-8.79,7.47-11.57,10.44-7.19,22.33-10.08,34.73-11.07,5.91-.47,11.84-.23,17.76.66,16.17,2.44,25.57,12.67,26.28,28.97.06,1.3,0,2.61,0,3.91ZM186.47,670.53c11.63-.17,19.07-6.49,20.86-17.71.3-1.86.64-3.71.97-5.56q2.06-11.51-9.43-9.79c-13.61,2.03-22.34,10.51-22.84,22.18-.33,7.86,2.68,11,10.44,10.88Z"/>
  <path class="cls-1" d="M789.19,565.86c4.64.05,9.25.23,13.84,1.1,15.06,2.86,23.75,13.01,24.41,28.33.57,13.18-2.64,25.86-4.83,38.67-2.32,13.54-4.94,27.03-7.02,40.61-.92,5.98-1.08,12.12.47,18.13.54,2.1.51,3.97-2.01,5.01-6.85,2.82-13.83,4.18-21.19,2.45-4.2-.98-7.52-3.21-9.05-7.33-1.05-2.83-2.13-2.55-4.25-1.01-8.19,5.94-17.32,8.98-27.54,9.18-25.34.49-33.32-18.19-31.13-35.4,3.64-28.62,21.05-45.79,49.91-49.92,6.31-.9,12.61-1.98,19-1.8,2.43.07,3.27-.95,3.64-3.17,1.71-10.16-1.45-13.82-11.81-14.37-10.55-.55-19.42,3.79-28.19,8.72-7.67,4.31-8.12,4.1-10.66-4.54-4.02-13.69-1.14-20.39,11.57-26.92,9.65-4.96,22.08-7.72,34.86-7.74ZM765.86,672.12c5.33-.3,11.1-2.6,15.95-7.12,1.38-1.29,2.61-2.74,2.96-4.68,1.24-6.81,2.41-13.64,3.71-20.44.32-1.66.18-2.55-1.79-2.23-5.12.83-10.37,1.01-15.32,2.7-9.76,3.34-15.79,9.83-16.8,20.4-.72,7.55,2.66,11.37,11.3,11.37Z"/>
  <path class="cls-3" d="M304.02,400.08c-.72,0-1.45-.05-2.17,0-3.98.31-9.08-1.73-11.65.85-2.32,2.32-2.05,7.28-2.79,11.1-4.94,25.69-9.89,51.38-14.67,77.1-.47,2.55-1.27,3.33-3.82,3.3-10.86-.13-21.73-.13-32.59,0-2.69.03-3.01-.72-2.51-3.24,5.63-28.2,11.06-56.45,16.74-84.64.75-3.71.06-4.76-3.76-4.54-5.49.32-11.01,0-16.51.12-2.36.06-3.41-.3-2.78-3.07,1.8-7.89,3.45-15.81,4.92-23.77.41-2.22,1.29-2.83,3.4-2.79,5.79.11,11.59-.06,17.38.09,2.42.06,3.48-.47,3.93-3.15,1.08-6.4,2.35-12.81,4.13-19.05,6.49-22.77,23-34.82,46.6-34.17,7.96.22,15.87.97,23.64,2.96,2.17.56,2.75,1.15,2.11,3.47-2.13,7.65-4.04,15.37-5.86,23.1-.57,2.42-1.45,3.19-3.77,1.96-1-.54-2.17-.81-3.28-1.1-10.33-2.7-17.45.9-21.53,10.83-1.6,3.9-2.24,8.05-3.25,12.12-.68,2.76.46,3.06,2.79,3.02,7.24-.12,14.49.06,21.72-.1,2.77-.06,3.86.39,3.13,3.54-1.81,7.74-3.41,15.53-4.83,23.35-.41,2.26-1.33,2.82-3.41,2.75-3.76-.13-7.53-.04-11.3-.04Z"/>
  <path class="cls-1" d="M308.67,599.37c-.43,0-.87,0-1.3,0-4.19.1-9.3-1.24-12.31.69-3.16,2.03-2.23,7.69-3,11.76-2.72,14.35-5.17,28.76-7.72,43.14-.08.43-.19.85-.25,1.28-1.16,9.24,3.81,13.17,12.5,9.86,3.84-1.46,7.24-3.66,10.28-6.37,2.67-2.39,4.37-1.59,5.5,1.45,1.46,3.94,2.83,7.92,3.37,12.1.75,5.83-1.06,10.82-5.17,15.04-10.78,11.09-33.27,15.68-47.41,9.31-10.07-4.54-14.09-13.29-14.95-23.71-.89-10.67,1.6-21.02,3.48-31.41,6.54-36.15,13.21-72.28,19.62-108.45.65-3.68,2.4-4.98,5.63-5.16,3.32-.18,6.67-.43,9.98-.28,11.36.5,17.7,7.99,16.35,19.36-.62,5.16-1.38,10.34-2.55,15.4-.77,3.33.28,3.98,3.33,3.92,6.95-.14,13.91-.06,20.87.03,4.57.06,5.32,1.08,4.51,5.55-1.34,7.4-2.72,14.8-3.93,22.22-.5,3.05-1.81,4.65-5.1,4.51-3.9-.16-7.82-.04-11.73-.04,0-.07,0-.13,0-.2Z"/>
  <path class="cls-1" d="M423.65,652.39c1.28-24.74,6.31-48.12,23.77-67.22,16.41-17.95,43.2-25.03,64.17-16.64,1.07.43,2.15.86,3.18,1.39,12.88,6.57,15.74,15.4,9.18,28.25-1.85,3.63-4.11,6.97-6.6,10.19-2.11,2.73-3.84,2.92-6.08-.08-6.8-9.12-15.73-12.84-27.04-10.07-4.81,1.18-8.95,3.51-11.94,7.42-10.86,14.24-14.18,30.7-12.22,47.98,1.45,12.78,11.02,17.98,23.95,14.61,6.16-1.6,11.48-4.68,16.05-9.1,3.66-3.54,5.16-3.27,6.98,1.53,1.17,3.1,2.17,6.32,2.74,9.57,1.89,10.82-1.38,17.74-10.92,23.27-15.59,9.03-32.12,10.37-48.96,4.61-15.16-5.18-21.95-17.49-25.16-32.29-.96-4.42-1.09-8.9-1.12-13.42Z"/>
  <path class="cls-3" d="M338.76,492.36c-5.21,0-10.45-.28-15.63.09-3.92.28-4.09-1.35-3.49-4.43,3.87-19.86,7.64-39.73,11.45-59.6,6.86-35.76,13.78-71.51,20.51-107.3.61-3.22,1.67-4.24,4.95-4.17,10.28.22,20.56.17,30.84.03,3.15-.04,4.41.13,3.63,4.12-10.88,55.88-21.57,111.8-32.14,167.74-.58,3.05-1.74,3.66-4.48,3.57-5.21-.18-10.42-.05-15.64-.05Z"/>
  <path class="cls-5" d="M515.76,503.78c7.95,0,15.05-.13,22.14.07,2.62.07,3.45-1.61,4.57-3.28,10.76-16.13,21.53-32.25,32.3-48.37.8-1.2,1.63-2.38,2.52-3.66,2.26,1.66,3.45,4.02,4.98,6.06,7.88,10.56,15.64,21.2,23.56,31.72,1.43,1.91,1.9,2.98-.26,4.88-7.97,7.04-7.87,7.14-14.26-1.47-4.31-5.81-8.62-11.62-12.95-17.47-1.77.87-2.33,2.61-3.26,3.99-8.71,12.98-17.37,25.98-26.03,38.99-1.14,1.71-2.11,3.06-4.67,3.04-17.68-.15-35.35-.08-53.03-.1-.39,0-.77-.15-1.24-.25-.02-1.86,1.34-2.9,2.19-4.14,18-26.26,35.98-52.53,54.12-78.69,1.95-2.81,2.07-4.62.06-7.52-26.21-37.82-52.24-75.77-78.44-113.6-1.94-2.81-2.14-4.21.8-6.45,7.49-5.71,7.35-5.88,12.68,1.86,27.17,39.45,54.31,78.92,81.56,118.3,1.84,2.66,1.95,4.4.05,7.13-14.88,21.38-29.57,42.89-44.31,64.36-.88,1.28-1.73,2.58-3.08,4.6Z"/>
  <path class="cls-5" d="M583.64,383.9c5.14-7.6,10.08-14.89,15.01-22.18,4.79-7.07,9.57-14.15,14.35-21.22.96-1.42,1.75-2.83,3.95-2.82,18.22.08,36.43.04,54.69.04.17,2.63-1.24,3.65-2.09,4.87-18.24,26.28-36.48,52.56-54.86,78.74-1.79,2.55-1.69,4.19.03,6.7,26.03,38.13,51.91,76.36,77.95,114.49,1.93,2.83,2.06,4.27-.9,6.47-7.5,5.58-7.36,5.75-12.68-2.08-26.92-39.63-53.8-79.28-80.82-118.83-1.86-2.72-1.85-4.37.05-7.07,14.94-21.17,29.67-42.48,44.47-63.75.97-1.4,1.9-2.83,3.39-5.04-8.28,0-15.86,0-23.43,0-2.05,0-2.43,1.86-3.26,3.09-10.74,15.8-21.43,31.63-32.13,47.46-.97,1.43-1.97,2.85-2.94,4.23-1.5-.18-1.86-1.44-2.51-2.32-8.65-11.79-17.21-23.65-25.94-35.38-1.61-2.16-1.87-3.45.51-5.15,2.69-1.93,5.09-4.26,7.84-6.61,6.44,8.79,12.75,17.4,19.32,26.37Z"/>
  <path class="cls-1" d="M805.14,559.92c-5.43,0-10.04-2.42-14.59-4.99-7.91-4.46-10.95-4.03-17.49,2.5-4.76,4.76-4.97,4.73-8.55-1.07-3.64-5.91-3.13-11.66,1.53-17.12,8.25-9.68,20.45-11.87,31.59-5.67,1.01.56,2,1.16,3,1.74,6.51,3.8,10.24,3.25,15.25-2.28,5.42-5.97,5.35-5.93,9.49,1.13,3.35,5.72,2.53,11.08-1.12,16.21-4.12,5.78-11.92,9.6-19.1,9.54Z"/>
  <path class="cls-2" d="M404.29,734.23c1.07-5.22,2.17-9.99,3-14.8.75-4.35,4.05-2.42,6.2-2.43,3.23-.02,1.44,2.5,1.19,3.84-2.47,13.05-5.07,26.08-7.58,39.12-.36,1.86-.72,3.32-3.17,3.01-2.05-.26-4.8.97-4.48-3.32-4.03,3.97-8.36,5.27-13.02,2.99-4.78-2.33-5.6-7.05-5.85-11.79-.17-3.2.48-6.33,1.54-9.36,3.72-10.7,12.07-13.6,22.18-7.26ZM388.63,750.04c.38,2.35-.1,5.99,3.63,6.96,3.62.94,5.97-1.53,7.53-4.48,1.85-3.51,2.84-7.22,1.59-11.21-.64-2.04-1.68-3.67-3.98-4.04-2.2-.35-3.98.45-5.34,2.14-2.36,2.92-3.16,6.4-3.42,10.64Z"/>
  <path class="cls-2" d="M465.84,758.96c-4.52,4.62-8.83,5.94-13.52,3.72-4.81-2.28-5.72-6.88-5.89-11.71-.12-3.37.4-6.61,1.57-9.78,3.87-10.51,12.33-13.38,22.01-6.9.98-4.79,1.88-9.36,2.84-13.92.64-3.05,4.93-4.91,7.55-3.37,1.08.64.57,1.44.41,2.24-2.73,13.89-5.54,27.77-8.14,41.68-.6,3.2-2.79,1.66-4.35,1.96-2.13.41-3.41-.32-2.48-3.94ZM467.57,745.19c-.05-3.37-.17-6.97-4.34-7.84-4.05-.85-5.95,2.11-7.29,5.32-1.4,3.37-2.22,6.86-1.14,10.51,1.24,4.2,4.4,5.32,7.91,2.69,3.5-2.63,4.57-6.47,4.85-10.68Z"/>
  <path class="cls-2" d="M749.77,734c4.45-3.6,8.76-4.68,13.26-1.93,4.52,2.76,5.25,7.37,5.16,12.16-.1,4.71-1.21,9.18-3.86,13.14-4.87,7.28-13.12,8.33-19.47,2.49-1.31.68-.37,2.98-2.83,3.18-4.98.39-5.56-.03-4.6-4.93,2.49-12.62,4.92-25.26,7.38-37.89.55-2.82,5.36-4.77,7.68-3.15,1.24.87.32,1.87.16,2.74-.84,4.52-1.81,9.02-2.87,14.2ZM747.07,750.15c.23,2.36-.12,6.07,3.96,6.91,3.92.81,6.16-1.94,7.49-5.18,1.32-3.21,2.15-6.59,1.41-10.12-.44-2.07-1.3-3.87-3.6-4.4-2.32-.53-4.29.15-5.81,1.98-2.41,2.9-3.3,6.34-3.45,10.81Z"/>
  <path class="cls-2" d="M581.9,759.48c-.87,4.69-1.95,8.76-2.32,12.9-.43,4.86-3.86,3.38-6.39,3.31-3.72-.11-1.4-2.95-1.19-4.13,2.16-12.38,4.54-24.73,6.98-37.06.23-1.17-.26-3.47,2.01-3.09,1.83.3,4.46-1.69,5.44,1.33.61,1.88,1.13.46,1.64.16,8.86-5.05,16.31-1.38,17.24,8.73.54,5.9-.73,11.56-4.31,16.44-4.9,6.67-12.65,7.38-19.09,1.42ZM597.26,744.25c-.07-2.59-.04-5.88-3.82-6.86-3.81-.99-5.99,1.46-7.41,4.51-1.53,3.3-2.35,6.79-1.62,10.5.45,2.28,1.34,4.21,3.79,4.73,2.34.5,4.26-.58,5.73-2.32,2.44-2.89,3.11-6.42,3.33-10.57Z"/>
  <path class="cls-2" d="M863.74,763.63c-7.63.02-12.17-4.13-13.15-12.03-1.66-13.21,9.48-23.83,21.38-20.4,3.23.93,5.69,2.81,7.27,5.73,4.83,8.92.13,26.81-15.5,26.7ZM872.9,744.2c-.1-2.44-.07-5.75-3.79-6.77-3.9-1.06-6.69.88-8.59,4.2-1.62,2.83-2.14,5.93-1.97,9.16.14,2.76.87,5.16,3.83,6.12,3.01.97,5.41-.21,7.3-2.44,2.33-2.75,3.17-6.08,3.23-10.26Z"/>
  <path class="cls-5" d="M718.05,744.92c-.14,11.97-8.29,19.75-19.43,18.6-3.33-.35-6.06-1.79-8.13-4.39-3.91-4.92-4.01-13.73-.29-20.09,3.37-5.75,10.18-9.24,16.41-8.4,7.39.99,11.54,6.18,11.45,14.28ZM710.09,744.91c-.1-3.16-.1-6.59-4.11-7.54-3.96-.94-6.66,1.11-8.45,4.48-1.59,3-2.26,6.23-1.86,9.61.3,2.58,1.28,4.77,4.07,5.54,2.66.73,4.87-.21,6.65-2.11,2.59-2.76,3.55-6.2,3.71-9.99Z"/>
  <path class="cls-2" d="M297.43,759.14c-2.95,2.36-4.65,3.93-7.06,4.34-5.03.86-9.28-1.23-10.66-5.31-1.64-4.86.18-10.03,4.5-12.42,3.66-2.03,7.7-2.25,11.78-2.37,1.31-.04,3.44,1.1,3.74-1.56.28-2.52-.74-4.13-3.3-4.79-4.06-1.05-7.66.6-11.35,1.76-.25-6.29.06-6.63,6.26-7.81,2.45-.46,4.87-.62,7.32-.12,5.84,1.19,8.7,4.52,8.05,10.39-.72,6.6-2.04,13.13-3.03,19.71-.41,2.74-2.49,1.74-4.05,1.96-2.28.33-3.32-.55-2.21-3.79ZM295.27,748.51c-5.43.18-8.73,2.21-8.71,5.43.01,2.84,1.89,3.61,4.36,3.54,3.63-.09,7.68-4.14,7.5-7.67-.13-2.61-2.22-.78-3.15-1.3Z"/>
  <path class="cls-2" d="M776.76,738.82c.32-6.75.33-6.71,6.49-7.88,3.5-.66,6.93-.59,10.2.84,4.36,1.92,5.67,5.69,5.09,10.01-.88,6.43-2.17,12.8-3.22,19.21-.19,1.14-.45,2.07-1.76,1.88-1.58-.23-3.97,1.07-4.6-.97-.78-2.54-1.58-1.25-2.57-.51-3.75,2.82-7.82,3.14-11.74.81-3.51-2.09-4.19-5.74-3.58-9.54.75-4.72,3.96-7.15,8.34-8.33,2.82-.76,5.69-.84,8.59-.97,1.33-.06,3.46,1.01,3.63-1.7.13-2.09-.63-3.6-2.71-4.41-3.22-1.25-6.26-.27-9.32.58-.94.26-1.85.63-2.84.97ZM786.84,748.52c-5.57.2-8.61,2.26-8.45,5.67.12,2.65,1.84,3.34,4.15,3.3,3.68-.06,7.85-4.24,7.52-7.64-.25-2.55-2.24-.88-3.22-1.33ZM788.56,759.36c-.05.09-.15.2-.13.26.13.38.32.39.48.02.03-.06-.04-.2-.11-.27-.04-.04-.16,0-.24-.02Z"/>
  <path class="cls-2" d="M431.8,759.34c-2.62,2.18-4.33,3.74-6.75,4.15-4.87.82-9-1.09-10.49-4.94-1.89-4.89-.06-10.37,4.4-12.82,3.67-2.01,7.71-2.23,11.8-2.35,1.29-.04,3.44,1.14,3.69-1.59.21-2.29-.56-3.88-2.93-4.64-4.06-1.3-7.68.48-11.42,1.44-.87-5.31-.21-6.4,4.66-7.33,1.84-.35,3.73-.68,5.59-.67,8.07.04,11.78,3.95,10.94,11.99-.62,5.89-1.92,11.7-2.74,17.57-.31,2.17-1.2,2.9-3.38,2.85-2.18-.05-4.1.07-3.36-3.65ZM433.3,748.7c-3.54-.38-6.84-.49-9.79,1.43-1.85,1.21-2.8,3.04-2.02,5.22.78,2.17,2.76,2.35,4.71,2.08,4.99-.68,6.11-4.51,7.1-8.73Z"/>
  <path class="cls-5" d="M654.71,755.51c-.72,7.21-1.08,7.55-7.95,8.02-5.93.4-11.62-.32-14.43-6.35-3.27-7.02-1.89-13.89,2.63-19.98,3.81-5.14,8.99-7.65,15.52-6.23,7.14,1.56,11.49,11.22,8.14,17.74-.75,1.46-1.96.94-3,.95-4.91.07-9.83.14-14.74-.01-2.82-.09-3.15,1.03-2.39,3.38.92,2.88,2.93,4.12,5.76,4.41,3.52.37,6.85-.43,10.47-1.92ZM645.16,744.05c1.57,0,3.15,0,4.72,0,.91,0,1.75-.12,1.86-1.26.19-1.92.08-3.85-1.6-5.07-2.4-1.75-4.94-1.24-7.22.26-1.82,1.21-3.75,3.2-3.17,5.19.56,1.93,3.25.54,4.96.89.14.03.29,0,.43,0Z"/>
  <path class="cls-5" d="M504.18,755.73c-.43,6.98-.7,7.26-7.54,7.78-6.08.46-11.94-.23-14.76-6.5-3.33-7.4-1.64-14.45,3.33-20.64,4.19-5.21,10.42-7,16.31-5.07,5.93,1.94,9.82,12.3,6.62,17.55-.81,1.32-2.04.79-3.09.8-4.77.07-9.55.19-14.31-.03-3.14-.14-3.4,1.2-2.58,3.62.96,2.86,3.12,3.93,5.93,4.21,3.49.35,6.74-.71,10.08-1.73ZM495.64,744.06c1.43-.67,4.05,1.2,5.44-.86,1-1.49.55-3.71-.94-5.13-2.22-2.12-4.8-1.65-7.16-.37-2.09,1.13-3.95,3.2-3.62,5.41.29,1.93,2.9.58,4.43.93.41.09.86.01,1.84.01Z"/>
  <path class="cls-5" d="M551.45,755.55c-.94,7.18-1.31,7.52-8.07,7.98-5.93.4-11.57-.36-14.42-6.38-3.34-7.06-1.83-13.9,2.65-19.97,3.79-5.14,8.99-7.66,15.52-6.22,7.1,1.57,11.42,11.26,8.09,17.73-.77,1.5-1.96.94-2.97.96-4.77.07-9.55.23-14.3-.03-3.54-.2-3.53,1.52-2.65,3.92.95,2.6,3.04,3.66,5.71,3.92,3.51.34,6.81-.56,10.46-1.9ZM542.13,744.06c1.77-.58,4.54,1.25,5.99-1.01.94-1.47.48-3.73-1.09-5.1-2.29-2-4.85-1.52-7.19-.16-2.04,1.18-3.92,3.28-3.49,5.47.33,1.72,2.99.48,4.58.8.28.05.57,0,1.2,0Z"/>
  <path class="cls-5" d="M372.53,755.64c-.04,6.63-.24,6.87-5.94,7.74-7.61,1.16-13.31-.9-16.05-5.82-3.18-5.69-1.94-14.89,2.8-20.81,4.3-5.36,10.57-7.42,16.63-5.46,5.91,1.91,10.01,12.71,6.68,17.6-.81,1.19-2.09.76-3.19.77-4.93.04-9.86.13-14.78-.03-2.63-.08-2.89,1-2.24,3.12.87,2.82,2.73,4.32,5.62,4.65,3.54.41,6.9-.34,10.46-1.76ZM363.82,744.06c1.75-.65,4.61,1.34,5.95-1.17.85-1.58.18-3.82-1.46-5.1-2.4-1.87-4.98-1.33-7.28.19-1.83,1.22-3.74,3.16-3.13,5.27.51,1.74,3.08.51,4.7.8.28.05.58,0,1.21,0Z"/>
  <path class="cls-2" d="M682.82,755.95c.19,4.31-.3,7.71-5.46,7.6-.59-.01-1.17.2-1.25.91-.11,1.03.76,1.13,1.42,1.25,2.91.51,4.25,2.2,4.07,5.15-.21,3.36-2.48,4.77-5.33,5.39-2.87.62-5.75.42-8.52-.74-1.23-.51-1.69-1.2-1.34-2.66.47-1.95,1.43-1.15,2.54-.83,1.24.36,2.54.67,3.82.68,1.31,0,2.79-.45,3.1-1.88.37-1.67-.97-2.21-2.37-2.41-.84-.12-2.19-.23-1.58-1.33,2.05-3.69-1.01-3.83-3.03-4.84-1.99-1-3.48-2.57-4.57-4.51-3.16-5.65-2.07-15.28,2.36-20.92,4.23-5.38,11.43-7.41,18.41-5.64,2.58.65,2.12,2.04,1.39,3.42-.66,1.24.65,4.42-2.96,3.2-4.06-1.37-7.82-.76-10.41,2.99-2.82,4.07-3.34,8.6-1.55,13.2,1.1,2.85,3.68,3.53,6.47,3.17,1.56-.2,3.08-.75,4.8-1.2Z"/>
  <path class="cls-5" d="M844.7,762.39c-10.84,3.62-9.41-5.98-12.54-10.86-5.08,4.5-6.51,14.75-17.2,10.75,3.65-4.59,7.15-9.16,10.86-13.56,1.41-1.68,1.56-3.08.68-5.03-1.75-3.92-3.25-7.95-4.91-12.06q7.1-.66,11.63,10.03c4.72-4.61,6.78-13.64,16.61-9.67-3.27,4.03-6.53,8.19-9.97,12.2-1.4,1.64-1.67,3-.73,5.02,2,4.29,3.7,8.73,5.56,13.2Z"/>
  <path class="cls-2" d="M261.89,752.95c2.62-5.27,5.25-10.54,7.87-15.82q3.14-6.33,10.8-5.43c-5.39,10.03-10.59,19.98-16.07,29.78-1.7,3.03-5.02,1.11-7.58,1.38-2.6.28-1.86-2.17-2.08-3.47-1.42-8.27-2.71-16.55-3.93-24.85-.2-1.33-1.13-3.67,1.74-3.15,2.1.38,5.51-2.07,6,2.54.67,6.31,1.56,12.6,2.36,18.9.3.04.6.08.9.12Z"/>
  <path class="cls-2" d="M314.47,762.85c-3.18.64-4.04-.36-3.32-3.66,1.82-8.31,3.25-16.7,4.83-25.06.23-1.21-.11-2.92,1.86-2.77,1.92.14,5.21-1.04,5.51.71.79,4.65,2.1.68,3.05.44.66-.17,1.18-.84,1.84-1.11,1.74-.72,4.01-1.78,5.28-.33,1.49,1.7-.3,4.03-.46,6.11-.18,2.32-1.96,1.33-3.29,1.4-4.64.24-6.92,3.34-8,7.32-1.21,4.44-2.24,8.97-2.84,13.52-.4,3.05-1.63,4.07-4.46,3.43Z"/>
  <path class="cls-2" d="M621.03,735.27c2.84-2.8,5.03-4.64,8.16-4.73,1.76-.05,2.92.44,2.3,2.49-.8,2.67.1,6.28-5.13,5.82-3.81-.33-5.98,3.21-6.89,6.74-1.26,4.88-2.34,9.82-3.2,14.78-.82,4.7-4.34,2.32-6.5,2.37-2.77.07-1.1-2.26-.88-3.51,1.48-8.38,3.28-16.71,4.51-25.12.56-3.8,3.02-2.49,5.07-2.84,2.8-.48,2.83,1.32,2.57,3.99Z"/>
  <path class="cls-2" d="M346.27,731.77c-1.88,9.47-3.91,18.9-5.57,28.4-.81,4.63-4.14,2.61-6.35,2.64-3.47.05-1.25-2.49-1.03-3.73,1.28-7.24,2.74-14.44,4.19-21.65,1.38-6.87,1.41-6.86,8.75-5.66Z"/>
  <path class="cls-2" d="M806.13,762.84c-3.38.78-3.87-.52-3.18-3.63,1.88-8.44,3.41-16.95,5.11-25.42.21-1.03-.07-2.52,1.71-2.45,2,.08,4.07-.49,5.94.4.28.13.04,1.56-.12,2.36-1.59,8.35-3.3,16.68-4.79,25.05-.51,2.86-1.47,4.59-4.68,3.69Z"/>
  <path class="cls-2" d="M898.96,720.18c4.26-.96,4.53.81,3.56,4.38-2.04,7.52-3.94,15.11-5.32,22.77-.69,3.86-3.07,3.19-5.37,3.04-3.39-.22-1.29-2.59-1.13-3.86.92-7.31,2.18-14.58,3.04-21.9.4-3.41,1.34-5.53,5.21-4.43Z"/>
  <path class="cls-2" d="M890.5,762.93c-1.04-.55-3.49,1.37-3.25-2.09.41-5.85.92-6.72,5.7-6.54,1.24.05,3.31-1.14,3.25,1.86-.1,5.28-1.2,6.8-5.7,6.77Z"/>
  <path class="cls-2" d="M343.48,725.58c-.75-.56-3.7,1.6-3.16-1.74.44-2.73-.43-7.02,4.74-6.12,1.31.23,4.29-1.44,3.61,1.75-.54,2.53.78,7.28-5.2,6.11Z"/>
  <path class="cls-2" d="M813.22,725.56c-.73-.54-3.73,1.6-3.12-1.73.49-2.68-.47-7.08,4.78-6.13,1.34.24,4.27-1.29,3.59,1.85-.55,2.54.74,7.26-5.25,6.01Z"/>
  <path class="cls-4" d="M788.56,759.37c.08,0,.2-.03.24.01.07.06.14.2.11.27-.16.37-.35.36-.48-.02-.02-.07.08-.18.13-.26Z"/>
</svg>