<?xml version="1.0" encoding="UTF-8"?>
<svg id="Camada_1" xmlns="http://www.w3.org/2000/svg" viewBox="0 0 1080 1080">
  <defs>
    <style>
      .cls-1 {
        fill: #bb1a1c;
        fill-rule: evenodd;
      }
    </style>
  </defs>
  <path class="cls-1" d="M195.75,487.88c5.38-1.54,8.83.61,7.44,5.02-1.39,4.41-7.2,9.31-12.69,10.73-5.5,1.42-8.49-1.09-6.98-5.37,1.5-4.29,6.85-8.83,12.23-10.37"/>
  <path class="cls-1" d="M328.5,595.94h26.43l12.04-58h19.38l4.11-18.5h-19.68l1.03-4.55c1.9-8.51,5.87-12.34,12.18-12.34,2.94,0,5.73.89,8.37,1.92l5-18.07c-5.58-1.6-13.07-2.34-19.67-2.34-17.04,0-27.9,9.84-31.28,25.69l-2.06,9.69h-16.01l-4.11,18.5h16.59l-12.34,58Z"/>
  <polygon class="cls-1" points="385.67 595.94 412.39 595.94 435.29 485.82 408.57 485.82 385.67 595.94"/>
  <path class="cls-1" d="M499.83,573.01c-7.34,3.52-16.89,5.29-23.94,5.29-16.14,0-20.25-6.46-20.55-14.68h54.17c1.02-4.56,1.91-11.31,1.91-14.39,0-23.19-15.12-33.33-35.23-33.33-34.07,0-45.81,27.32-45.81,45.08,0,19.23,13.8,34.97,39.35,34.97,7.63,0,17.47-1.47,26.72-4.29l3.38-18.65ZM456.96,548.63c1.91-7.33,8.07-15.12,19.52-15.12,9.69,0,12.92,6.91,12.92,15.12h-32.44Z"/>
  <polygon class="cls-1" points="503.67 595.94 536.29 595.94 553.9 572.16 562.71 595.94 591.34 595.94 573.28 557.03 605.73 519.44 574.46 519.44 558.31 542.35 549.94 519.44 522.05 519.44 538.34 555.99 503.67 595.94"/>
  <path class="cls-1" d="M617.05,595.94h13.8l13.8-63.72h20.11l2.21-11.16h-19.82l1.47-6.9c1.91-8.95,5.14-18.94,17.33-18.94,1.46,0,5.13.73,6.6,1.47l2.79-11.01c-3.52-1.03-7.2-1.61-10.58-1.61-21.58,0-27.02,17.18-29.8,29.66l-1.76,7.33h-18.2l-2.06,11.16h17.91l-13.8,63.72Z"/>
  <path class="cls-1" d="M673,534.98c6.16-3.66,14.83-6.31,22.91-6.31,10.12,0,17.18,4.11,17.18,14.82,0,1.77-.44,3.38-.74,4.85-3.37-.15-7.04-.44-9.98-.44-25.11,0-44.34,6.02-44.34,27.3,0,14.1,11.31,20.73,23.93,20.73,9.98,0,19.67-5.31,24.37-14.27h.29s-2.49,12.48-2.49,12.48h12.77c1.91-13.22,4.99-27.16,7.78-41.11.73-3.53,1.32-8.38,1.32-11.74,0-17.91-14.54-23.79-29.65-23.79-5.43,0-14.25,1.62-20.85,3.82l-2.5,13.65ZM709.41,558.18c-1.62,12.63-10.42,26.58-24.37,26.58-6.61,0-12.33-3.53-12.33-10.14,0-13.65,15.71-16.44,26.13-16.44h10.57Z"/>
  <path class="cls-1" d="M727.75,595.94h13.8l7.78-36.86c1.91-9.25,10.28-27.75,27.31-27.75,1.03,0,3.23.44,5.87,1.47l3.08-12.18c-2.64-1.03-4.99-1.31-6.31-1.31-13.07,0-21.14,6.6-25.54,13.65h-.3s2.35-11.9,2.35-11.9h-12.92c-.6,4.4-1.48,8.37-2.05,11.45l-13.07,63.43Z"/>
  <path class="cls-1" d="M777.82,595.94h13.8l8.37-37.6c2.49-11.59,10.27-27.89,24.23-27.89,7.05,0,11.01,4.85,11.01,11.02,0,1.61-.29,4.11-.87,7.05l-9.99,47.42h13.8l8.37-37.6c2.49-11.59,10.27-27.89,24.23-27.89,7.04,0,11,4.85,11,11.02,0,1.61-.28,4.11-.87,7.05l-9.98,47.42h13.8l8.66-41.4c1.17-5.29,2.21-11.16,2.21-15.71,0-11.45-8.67-19.52-20.85-19.52-11.45,0-19.23,4.54-26.57,13.06-2.5-8.95-11.02-13.06-19.83-13.06-9.83,0-18.5,4.11-23.78,12.03h-.29s1.76-10.28,1.76-10.28h-12.92c-.6,3.23-.88,5.89-1.47,8.52l-13.8,66.37Z"/>
  <path class="cls-1" d="M913.22,534.98c6.15-3.66,14.82-6.31,22.89-6.31,10.13,0,17.18,4.11,17.18,14.82,0,1.77-.44,3.38-.73,4.85-3.38-.15-7.06-.44-9.99-.44-25.11,0-44.34,6.02-44.34,27.3,0,14.1,11.31,20.73,23.93,20.73,9.98,0,19.67-5.31,24.37-14.27h.3s-2.5,12.48-2.5,12.48h12.78c1.9-13.22,4.99-27.16,7.78-41.11.73-3.53,1.32-8.38,1.32-11.74,0-17.91-14.53-23.79-29.66-23.79-5.43,0-14.24,1.62-20.84,3.82l-2.49,13.65ZM949.63,558.18c-1.62,12.63-10.42,26.58-24.38,26.58-6.6,0-12.34-3.53-12.34-10.14,0-13.65,15.72-16.44,26.15-16.44h10.57Z"/>
  <polygon class="cls-1" points="450.84 485.55 464.41 485.55 463.71 489.17 454.42 489.17 453.07 496.12 461.71 496.12 461.01 499.71 452.41 499.71 450.43 510.21 446.15 510.21 450.84 485.55"/>
  <path class="cls-1" d="M467.81,503.19l-3.36,7.03h-4.54l12.37-24.66h5.34l3.11,24.66h-4.46l-.7-7.03h-7.76ZM475.32,499.9l-.69-6.15c-.11-1.32-.25-3.22-.37-4.68h-.07c-.66,1.5-1.32,3.22-2.01,4.68l-3,6.15h6.15Z"/>
  <path class="cls-1" d="M488.31,485.95c1.58-.37,3.88-.58,6.04-.58,2.38,0,4.69.44,6.23,1.58,1.35.99,2.3,2.49,2.3,4.5,0,3.66-2.56,6.11-5.71,7.06v.11c1.58.63,2.31,2.34,2.53,4.69.29,3.08.47,5.9.84,6.92h-4.39c-.15-.59-.4-2.93-.62-5.89-.22-3.15-1.35-4.28-3.59-4.28h-2.09l-1.94,10.17h-4.25l4.65-24.26ZM490.47,496.82h2.41c3.3,0,5.56-2.08,5.56-4.76,0-2.31-1.79-3.33-4.21-3.33-1.1,0-1.79.07-2.3.22l-1.47,7.87Z"/>
  <path class="cls-1" d="M524.61,510.21l1.61-11.6c.4-2.52.91-6,1.53-9.04h-.11c-1.28,2.89-2.74,6.08-4.1,8.67l-6.04,11.68h-3.33l-1.28-11.49c-.29-2.75-.51-5.93-.66-8.86h-.07c-.62,2.82-1.39,6.55-1.98,9.04l-2.85,11.6h-3.96l6.3-24.66h5.6l1.32,11.53c.18,2.2.44,4.76.48,7.1h.14c.88-2.34,2.05-4.94,3.11-7.06l5.96-11.56h5.71l-3.26,24.66h-4.13Z"/>
  <path class="cls-1" d="M539.32,503.19l-3.37,7.03h-4.54l12.37-24.67h5.34l3.11,24.67h-4.46l-.7-7.03h-7.76ZM546.82,499.9l-.7-6.15c-.11-1.32-.26-3.22-.37-4.68h-.07c-.66,1.5-1.32,3.22-2.01,4.69l-3,6.15h6.15ZM552.82,479.77l-4.9,4.46h-3.66l3.55-4.46h5.01Z"/>
  <path class="cls-1" d="M572.03,509.48c-1.31.63-3.55,1.14-6.44,1.14-6.41,0-10.5-3.95-10.5-10.36,0-5.16,2.2-9.52,5.79-12.15,2.56-1.94,5.63-2.93,9.18-2.93,2.71,0,4.69.66,5.38,1.09l-1.24,3.44c-.8-.44-2.49-.88-4.65-.88-2.3,0-4.61.81-6.25,2.3-2.2,1.9-3.59,5.01-3.59,8.56,0,4.17,2.12,7.25,6.99,7.25,1.79,0,3.66-.33,4.94-.91l.4,3.44Z"/>
  <polygon class="cls-1" points="583.93 485.55 579.24 510.21 575 510.21 579.68 485.55 583.93 485.55"/>
  <path class="cls-1" d="M590.44,503.19l-3.36,7.03h-4.54l12.37-24.66h5.35l3.11,24.66h-4.46l-.7-7.03h-7.76ZM597.94,499.9l-.69-6.15c-.11-1.32-.26-3.22-.37-4.68h-.07c-.66,1.5-1.32,3.22-2.01,4.68l-3,6.15h6.15Z"/>
  <path class="cls-1" d="M607.01,505.35c1.39.92,3.37,1.58,5.56,1.58,2.38,0,4.54-1.28,4.54-3.66,0-1.61-1.06-2.71-3.44-3.99-2.86-1.54-5.01-3.48-5.01-6.44,0-4.72,4.1-7.65,9.08-7.65,2.74,0,4.53.66,5.49,1.24l-1.39,3.51c-.8-.44-2.45-1.13-4.43-1.1-2.74,0-4.28,1.57-4.28,3.22s1.39,2.71,3.7,3.99c3,1.57,4.79,3.55,4.79,6.55,0,4.94-4.03,7.98-9.52,7.98-3-.04-5.45-.88-6.55-1.72l1.46-3.51Z"/>
  <path class="cls-1" d="M155.67,513.39c4.58-1.18,7.15,1.23,5.46,5.6-1.68,4.37-7.03,8.91-11.69,9.97-4.65,1.05-6.79-1.66-5.03-5.9,1.75-4.24,6.67-8.48,11.25-9.66"/>
  <path class="cls-1" d="M172.55,508.83c4.96-1.28,7.94,1.16,6.36,5.65-1.58,4.49-7.19,9.23-12.24,10.37-5.05,1.14-7.56-1.63-5.89-5.98,1.67-4.37,6.81-8.76,11.77-10.04"/>
  <path class="cls-1" d="M166.4,524.15c5.05-1.13,8.03,1.65,6.35,6.48-1.68,4.82-7.48,9.71-12.63,10.67-5.15.97-7.64-2.18-5.86-6.84,1.78-4.66,7.08-9.18,12.14-10.31h0Z"/>
  <path class="cls-1" d="M200.54,473.54c5.27-1.65,8.68.21,7.37,4.32-1.3,4.11-6.92,8.88-12.29,10.42-5.37,1.54-8.36-.62-6.94-4.64,1.41-4.02,6.6-8.46,11.87-10.11h0Z"/>
  <path class="cls-1" d="M190.65,503.17c5.49-1.41,8.97,1.1,7.49,5.84-1.49,4.74-7.47,9.77-13.09,11.03-5.62,1.26-8.62-1.6-7.01-6.19,1.61-4.59,7.11-9.26,12.61-10.68"/>
  <path class="cls-1" d="M185.2,519.57c5.63-1.25,9.14,1.65,7.56,6.75-1.58,5.09-7.78,10.29-13.53,11.37-5.75,1.07-8.75-2.23-7.04-7.15,1.71-4.92,7.38-9.72,13-10.97"/>
  <path class="cls-1" d="M179.43,537.07c5.81-1.08,9.39,2.32,7.67,7.87-1.72,5.54-8.22,10.99-14.16,11.86-5.94.86-8.96-2.98-7.11-8.33,1.85-5.34,7.78-10.33,13.59-11.41"/>
  <path class="cls-1" d="M173.1,556.37c5.75-.83,9.24,2.99,7.45,8.8-1.79,5.82-8.31,11.21-14.19,11.8-5.88.59-8.8-3.63-6.88-9.21,1.93-5.58,7.86-10.56,13.61-11.39"/>
  <path class="cls-1" d="M215.56,481.9c6.07-1.74,10.22.48,8.93,5.19-1.29,4.72-7.67,10.06-13.88,11.66-6.22,1.6-9.83-1.02-8.39-5.61,1.44-4.59,7.27-9.51,13.34-11.25h0Z"/>
  <path class="cls-1" d="M210.94,497.65c6.22-1.59,10.45,1.02,9.06,6.11-1.38,5.09-7.97,10.57-14.36,12-6.39,1.43-10.02-1.6-8.48-6.52,1.53-4.93,7.55-9.99,13.77-11.58"/>
  <path class="cls-1" d="M205.99,514.58c6.39-1.42,10.68,1.65,9.2,7.15-1.48,5.49-8.31,11.16-14.87,12.38-6.56,1.22-10.22-2.29-8.57-7.59,1.64-5.29,7.85-10.52,14.25-11.93h0Z"/>
  <path class="cls-1" d="M200.63,533.04c6.42-1.19,10.68,2.33,9.13,8.14-1.55,5.82-8.51,11.58-15.09,12.54-6.58.96-10.18-3.04-8.46-8.63,1.72-5.58,8.01-10.85,14.43-12.05"/>
  <path class="cls-1" d="M233.1,491.62c7.09-1.79,12.19.93,10.96,6.41-1.23,5.47-8.49,11.46-15.77,13.08-7.28,1.61-11.71-1.59-10.29-6.88,1.42-5.29,8.01-10.81,15.1-12.61"/>
  <path class="cls-1" d="M228.77,509.13c7.3-1.6,12.52,1.61,11.21,7.54-1.31,5.94-8.86,12.14-16.38,13.53-7.51,1.39-12.01-2.36-10.48-8.08,1.53-5.72,8.35-11.39,15.65-13h0Z"/>
  <path class="cls-1" d="M253.88,503.15c8.39-1.84,14.73,1.58,13.66,7.99-1.08,6.41-9.44,13.2-18.1,14.78-8.66,1.59-14.18-2.4-12.82-8.57,1.36-6.17,8.87-12.37,17.26-14.2"/>
  <path class="cls-1" d="M217.17,582.16c27.44-.94,52.99,2.39,75.43,9.14v.06c-21.81-3.03-45.26-4.2-69.81-3.22-38.73,1.56-75.82,8.3-109.01,18.91v-.06c30.25-14.46,65.9-23.54,103.39-24.83"/>
</svg>