<?xml version="1.0" encoding="UTF-8"?>
<svg id="Camada_1" xmlns="http://www.w3.org/2000/svg" viewBox="0 0 1080 1080">
  <defs>
    <style>
      .cls-1 {
        fill: #009b3d;
      }

      .cls-2 {
        fill: #e3171f;
      }
    </style>
  </defs>
  <path class="cls-2" d="M285.61,519.33h-37.14v-37.66c0-2.77-2.27-5.04-5.04-5.04h-52c-2.77,0-5.04,2.27-5.04,5.04v37.66h-37.36c-2.75,0-5.01,2.25-5.01,5.01v52.07c0,2.76,2.25,5.01,5.01,5.01h37.36v36.79c0,2.77,2.27,5.04,5.04,5.04h52c2.77,0,5.04-2.27,5.04-5.04v-36.79h37.14c2.75,0,5.01-2.25,5.01-5.01v-52.07c0-2.75-2.25-5.01-5.01-5.01"/>
  <path class="cls-2" d="M289.17,476.17h-19.85c-1.37,0-2.5,1.12-2.5,2.49v19.85c0,1.37,1.12,2.49,2.49,2.49h19.85c1.37,0,2.49-1.12,2.49-2.49v-19.84c0-1.37-1.12-2.5-2.49-2.5"/>
  <path class="cls-2" d="M309.43,456.76h-9.24c-.96,0-1.76.79-1.76,1.75v9.24c0,.97.79,1.76,1.76,1.76h9.24c.97,0,1.76-.79,1.76-1.76v-9.24c0-.97-.79-1.76-1.76-1.76"/>
  <path class="cls-1" d="M407.82,519.09c-.95.27-4.05.67-7.15.67h-19.44c-3.1,0-4.59.27-5.67.94.14-8.37.27-17.14.27-26.32,0-.67,0-1.48-.13-2.43l29.15.27c10.12.14,9.85-5.13,9.58-11.47-1.21.41-3.24.54-5.67.68-12.96.54-32.26.27-44.41.27-1.35,0-4.05.13-5.67.27,1.35,7.96,1.35,12.69,1.35,21.33,0,14.04-.41,42.65-.41,59.93,0,7.15,4.59,9.18,10.53,9.18,2.29,0,4.72-.14,6.34-.27-.68-5.8-.81-10.26-.94-14.44-.14-6.88-.14-13.9-.14-20.92,0-4.99,2.7-7.29,7.29-7.29h15.66c9.85,0,9.72-4.72,9.45-10.39"/>
  <path class="cls-1" d="M475.31,566.33c.14-.41,0-.41-.27-.27-1.21.67-3.38.95-4.72.95-7.56,0-7.83-10.8-7.83-19.44,0-6.21.27-15.25.27-21.73,0-12.42-2.97-24.3-24.3-24.3-17.55,0-26.86,6.88-26.86,14.98,0,4.72,2.56,9.18,8.5,9.18,2.7,0,5.26-1.35,6.88-3.24-2.43-9.31.68-14.04,10.8-14.04,11.74,0,11.47,7.96,10.66,19.98l-.14,1.89c-16.47.67-40.49,6.34-40.49,25.24,0,10.66,8.1,18.22,20.38,18.22,9.58,0,17.14-5.53,20.52-11.07,1.35,6.07,4.86,10.53,13.63,10.53,6.21,0,11.2-2.56,12.96-6.88M448.18,558.64c-4.59,3.78-7.96,4.99-12.69,4.99-7.83,0-11.74-3.91-11.74-10.93,0-3.78,1.21-7.02,3.37-9.18,4.32-4.32,10.39-5.94,17.14-5.94,1.21,0,2.97.14,3.91.27-.27,9.72-.27,6.75-.27,13.23,0,2.56,0,5.13.27,7.56"/>
  <path class="cls-1" d="M518.64,525.97c5.13,0,9.18-5.4,9.18-11.07,0-6.34-4.32-12.82-14.17-12.82s-15.25,3.78-20.65,17.01l-.27-.14c.27-2.03.27-3.38.27-5.8,0-6.61-4.32-9.99-9.72-9.99-2.29,0-4.72.14-6.34.27,1.35,9.58,1.62,18.49,1.62,27.53,0,0-.4,20.92-.4,32.8,0,6.61,4.32,8.64,9.72,8.64,2.29,0,4.45-.14,6.07-.27-.67-5.54-.81-9.85-.94-13.36-.27-8.91-.14-14.98-.14-23.89v-1.21c0-8.91,9.04-23.22,15.93-23.22,5.53,0,4.32,8.1,2.7,13.09,1.21,1.35,4.45,2.43,7.15,2.43"/>
  <path class="cls-1" d="M625.27,572.13c-.67-5.53-.81-9.85-.94-13.36-.14-4.45-.14-6.21-.14-10.66v-12.42c0-4.86.14-8.37.14-13.9,0-12.01-6.75-19.98-17.82-19.98s-17.55,6.75-21.33,14.58h-.14c-1.75-9.04-8.1-14.58-17.41-14.58-10.53,0-17.41,6.48-21.19,14.31l-.14-.14c.27-1.08.27-2.56.27-3.37,0-6.61-4.32-9.45-9.72-9.45-2.29,0-4.59.13-6.21.27,1.35,9.58,1.62,18.49,1.62,27.53,0,0-.41,20.92-.41,32.8,0,6.61,4.32,8.64,9.72,8.64,2.29,0,4.45-.14,6.07-.27-.67-5.53-.81-9.85-.94-13.36-.27-8.91-.14-14.98-.14-23.89v-14.04c3.37-5.53,9.72-8.77,13.9-8.77,7.56,0,10.53,5.4,10.53,14.31,0,4.45-.4,24.57-.4,37.39,0,6.61,4.32,8.64,9.72,8.64,2.29,0,4.45-.14,6.07-.27-.68-5.53-.81-9.85-.95-13.36-.14-4.45-.14-6.21-.14-10.66v-12.42c0-4.86.14-8.1.14-13.63v-.81c3.24-5.53,9.72-9.18,13.9-9.18,7.56,0,10.53,5.4,10.53,14.31,0,4.45-.4,24.57-.4,37.39,0,6.61,4.32,8.64,9.72,8.64,2.29,0,4.45-.14,6.07-.27"/>
  <path class="cls-1" d="M700.32,566.06c-1.22.67-3.38.95-4.72.95-7.56,0-7.83-10.8-7.83-19.44,0-6.21.27-15.25.27-21.73,0-12.42-2.97-24.3-24.29-24.3-17.55,0-26.86,6.88-26.86,14.98,0,4.72,2.56,9.18,8.5,9.18,2.7,0,5.26-1.35,6.88-3.24-2.43-9.31.68-14.04,10.8-14.04,11.74,0,11.47,7.96,10.66,19.98l-.14,1.89c-16.47.67-40.49,6.34-40.49,25.24,0,10.66,8.1,18.22,20.38,18.22,9.58,0,17.14-5.53,20.52-11.07,1.35,6.07,4.86,10.53,13.63,10.53,6.21,0,11.2-2.56,12.96-6.88.13-.41,0-.41-.27-.27M673.45,558.64c-4.59,3.78-7.96,4.99-12.69,4.99-7.83,0-11.74-3.91-11.74-10.93,0-3.78,1.21-7.02,3.37-9.18,4.32-4.32,10.39-5.94,17.14-5.94,1.21,0,2.97.14,3.91.27-.27,9.72-.27,6.75-.27,13.23,0,2.56,0,5.13.27,7.56"/>
  <path class="cls-1" d="M752.42,522.6c6.07-4.32,11.61-10.8,11.61-19.3,0-9.85-7.83-22.14-36.04-22.14-7.96,0-15.66.14-23.35.94,1.35,7.96,1.35,12.69,1.35,21.33,0,14.04-.41,42.25-.41,59.52,0,8.91,12.69,9.85,24.84,9.85,18.09,0,42.11-5.53,42.11-27.53,0-9.72-6.07-19.17-20.11-22.68M728.12,489.26c14.04,0,20.52,5.4,20.52,15.25,0,6.48-2.56,16.74-16.47,16.74h-10.66c.14-8.5.27-16.2.27-25.64,0-1.76-.14-4.45-.41-6.07,1.21-.13,5.26-.27,6.75-.27M751.61,557.83c-3.91,3.91-10.12,5.67-18.76,5.67-2.7,0-7.83,0-10.93-.68-.27-1.75-.41-3.64-.41-5.4,0-9.31-.27-18.49-.14-28.21h13.5c10.66,0,21.19,4.45,21.19,16.6,0,5.13-1.35,8.91-4.45,12.01"/>
  <path class="cls-1" d="M833.4,553.51c-7.15,7.15-14.04,9.85-20.38,9.85-13.36,0-20.79-10.26-21.46-21.6,3.64,1.89,8.5,2.97,13.5,2.97,12.69,0,27.13-8.5,27.13-22.68,0-10.93-7.56-20.52-23.35-20.52-22.54,0-33.07,19.03-33.07,38.6,0,18.49,9.85,33.88,32.53,33.88,15.79,0,25.92-10.12,25.92-20.11,0-.54-.27-.95-.81-.41M807.62,509.1c7.56,0,9.04,6.21,9.04,11.47,0,9.45-6.07,16.06-14.85,16.06-3.78,0-7.02-.94-10.12-2.56,1.21-12.96,6.07-24.97,15.93-24.97"/>
  <path class="cls-1" d="M935.04,558.77c-.14-4.45-.14-6.21-.14-10.66v-12.42c0-4.86.14-8.37.14-13.9,0-12.01-6.75-19.98-17.82-19.98s-17.55,6.75-21.33,14.58h-.14c-1.76-9.04-8.1-14.58-17.41-14.58-10.53,0-17.41,6.48-21.19,14.31l-.14-.14c.27-1.08.27-2.56.27-3.38,0-6.61-4.32-9.45-9.72-9.45-2.3,0-4.59.14-6.21.27,1.35,9.58,1.62,18.49,1.62,27.53,0,0-.4,20.92-.4,32.8,0,6.61,4.32,8.64,9.72,8.64,2.29,0,4.45-.14,6.07-.27-.68-5.53-.81-9.85-.94-13.36-.27-8.91-.14-14.98-.14-23.89v-14.04c3.37-5.53,9.72-8.77,13.9-8.77,7.56,0,10.53,5.4,10.53,14.31,0,4.45-.41,24.57-.41,37.39,0,6.61,4.32,8.64,9.72,8.64,2.29,0,4.45-.14,6.07-.27-.67-5.53-.81-9.85-.94-13.36-.14-4.45-.14-6.21-.14-10.66v-12.42c0-4.86.14-8.1.14-13.63v-.81c3.24-5.53,9.72-9.18,13.9-9.18,7.56,0,10.53,5.4,10.53,14.31,0,4.45-.4,24.57-.4,37.39,0,6.61,4.32,8.64,9.72,8.64,2.29,0,4.45-.14,6.07-.27-.68-5.53-.81-9.85-.95-13.36"/>
  <path class="cls-1" d="M468.44,595.06c-2.77,0-6.21.21-6.64.25.36,2.1.36,3.34.36,5.61,0,3.69-.11,10.97-.11,15.52,0,.85.25,1.39.71,1.85.78.78,3.05.89,5.29.89,8.1-.04,13.6-3.8,13.6-12.43,0-7.92-5.08-11.68-13.21-11.68M469.22,616.73c-.75,0-2.1-.04-2.91-.18-.04-.5-.07-1.1-.07-1.7-.11-5.22.07-9.98.07-16.09,0-.5-.04-.92-.11-1.35.67-.07,1.7-.11,2.38-.11,3.44,0,8.74,1.35,8.74,9.73,0,5.26-2.06,9.7-8.1,9.7"/>
  <path class="cls-1" d="M533.79,617.58c-.07.04-.25.11-.46.11-1.63,0-2.77-1.85-3.55-2.95l-3.02-4.33c-.64-.92-1.28-1.81-2.34-2.24,3.52-.85,6.46-3.02,6.46-6.57,0-3.3-2.98-6.53-10.12-6.53-1.39,0-4.08.11-5.79.25.35,2.1.35,3.34.35,5.61,0,3.69-.11,11.19-.11,15.73,0,1.88,1.21,2.42,2.77,2.42.6,0,1.24-.04,1.67-.07-.18-1.53-.21-2.7-.25-3.8-.03-2.2,0-4.33,0-6.53,1.24,0,1.78.75,2.27,1.49l3.73,5.5c1.7,2.52,2.7,3.55,5.43,3.55,1.42,0,2.66-.43,3.09-1.53.04-.11-.07-.14-.14-.11M520.9,606.5c-.39,0-.92,0-1.49-.07.04-2.59.07-5.19.07-7.85,0-.5-.07-.92-.18-1.31.28-.03.99-.07,1.31-.07,4.26,0,5.93,2.17,5.93,4.62,0,2.31-1.56,4.69-5.65,4.69"/>
  <path class="cls-1" d="M574.35,594.74c-6.36,0-11.4,4.15-11.4,12.25s5.04,12.5,11.4,12.5,11.08-4.47,11.08-12.5-4.83-12.25-11.08-12.25M574.28,617.19c-4.79,0-6.78-4.33-6.78-10.19s1.99-9.94,6.78-9.94,6.64,4.01,6.64,9.94-1.88,10.19-6.64,10.19"/>
  <path class="cls-1" d="M631.42,606.25c-2.66,0-2.59,1.6-2.52,3.27.32-.11.85-.21,1.49-.25,1.17-.07,2.66-.14,4.05-.18.04,2.31.04,4.62,0,6.75-1.21.78-2.74,1.21-4.48,1.21-5.08,0-8.03-4.19-8.03-10.05s2.98-9.84,7.78-9.84c2.56,0,4.62,1.74,5.82,3.94,1.28-.57,1.85-1.53,1.85-2.66,0-2.98-4.94-3.66-7.6-3.66-6.5,0-12.29,4.23-12.29,12.32s4.94,12.39,12.39,12.39c4.58,0,8.52-2.02,8.52-3.41v-4.08c0-2.27,0-3.8.28-5.65-.85-.11-1.49-.11-2.24-.11h-5.04Z"/>
  <path class="cls-1" d="M684.81,599.61c-1.03-3.02-2.13-4.9-5.26-4.9-.21,0-.75,0-1.24.07-.14.92-.46,2.1-.89,3.37-1.85,5.36-6.29,17.3-8.13,20.85.64.07,1.49.07,1.92.07,1.63,0,2.13-1.17,2.56-2.34l1.63-4.47c2.7-.07,6.57-.04,9.27-.04.5,1.46,1.07,2.95,1.63,4.47.67,1.81,1.92,2.34,3.34,2.34.6,0,1.42,0,2.31-.07-.71-1.21-1.21-2.24-1.78-3.73-1.14-3.02-4.62-13.5-5.36-15.63M676.35,609.55l1.78-4.83c.67-1.81,1.42-4.12,1.88-5.97.32.35.71,1.39.92,2.02.96,2.98,1.85,5.86,2.84,8.77-2.24.04-5.04.04-7.42,0"/>
  <path class="cls-1" d="M742.59,617.58c-.07.04-.25.11-.46.11-1.63,0-2.77-1.85-3.55-2.95l-3.02-4.33c-.64-.92-1.28-1.81-2.34-2.24,3.52-.85,6.46-3.02,6.46-6.57,0-3.3-2.98-6.53-10.12-6.53-1.39,0-4.08.11-5.79.25.35,2.1.35,3.34.35,5.61,0,3.69-.11,11.19-.11,15.73,0,1.88,1.21,2.42,2.77,2.42.6,0,1.24-.04,1.67-.07-.18-1.53-.21-2.7-.25-3.8-.04-2.2,0-4.33,0-6.53,1.24,0,1.78.75,2.27,1.49l3.73,5.5c1.71,2.52,2.7,3.55,5.43,3.55,1.42,0,2.67-.43,3.09-1.53.04-.11-.07-.14-.14-.11M729.7,606.5c-.39,0-.92,0-1.49-.07.04-2.59.07-5.19.07-7.85,0-.5-.07-.92-.18-1.31.28-.03.99-.07,1.31-.07,4.26,0,5.93,2.17,5.93,4.62,0,2.31-1.56,4.69-5.65,4.69"/>
  <path class="cls-1" d="M778.18,598.47c0-2.17-1.14-3.34-3.02-3.34-.35,0-1.06.04-1.49.07.35,2.09.35,3.27.35,5.54,0,3.69-.11,11.36-.11,15.91,0,1.88,1.21,2.42,2.77,2.42.6,0,1.24-.04,1.67-.07-.18-1.53-.21-2.74-.25-3.73-.11-5.83.07-11.12.07-16.8"/>
  <path class="cls-1" d="M825.73,599.61c-1.03-3.02-2.13-4.9-5.26-4.9-.21,0-.75,0-1.24.07-.14.92-.46,2.1-.89,3.37-1.85,5.36-6.29,17.3-8.13,20.85.64.07,1.49.07,1.92.07,1.63,0,2.13-1.17,2.56-2.34l1.63-4.47c2.7-.07,6.57-.04,9.27-.04.5,1.46,1.07,2.95,1.63,4.47.68,1.81,1.92,2.34,3.34,2.34.6,0,1.42,0,2.31-.07-.71-1.21-1.21-2.24-1.78-3.73-1.14-3.02-4.62-13.5-5.36-15.63M817.28,609.55l1.78-4.83c.67-1.81,1.42-4.12,1.88-5.97.32.35.71,1.39.92,2.02.96,2.98,1.85,5.86,2.84,8.77-2.24.04-5.04.04-7.42,0"/>
</svg>